<svg width="16" height="18" viewBox="0 0 16 18" fill="none" xmlns="http://www.w3.org/2000/svg">
<path d="M11.1245 16.5C11.1245 16.6658 11.0587 16.8247 10.9415 16.9419C10.8243 17.0592 10.6653 17.125 10.4995 17.125H5.49953C5.33377 17.125 5.1748 17.0592 5.05759 16.9419C4.94038 16.8247 4.87453 16.6658 4.87453 16.5C4.87453 16.3342 4.94038 16.1753 5.05759 16.0581C5.1748 15.9408 5.33377 15.875 5.49953 15.875H10.4995C10.6653 15.875 10.8243 15.9408 10.9415 16.0581C11.0587 16.1753 11.1245 16.3342 11.1245 16.5ZM15.3316 14C15.2231 14.191 15.0657 14.3497 14.8755 14.4595C14.6853 14.5694 14.4692 14.6265 14.2495 14.625H1.74953C1.5298 14.6247 1.31402 14.5665 1.12395 14.4562C0.933886 14.346 0.776244 14.1875 0.666917 13.9969C0.557589 13.8063 0.50044 13.5903 0.501229 13.3705C0.502018 13.1508 0.560717 12.9351 0.67141 12.7453C1.105 11.9984 1.74953 9.88594 1.74953 7.125C1.74953 5.4674 2.40801 3.87769 3.58012 2.70558C4.75222 1.53348 6.34193 0.875 7.99953 0.875C9.65714 0.875 11.2469 1.53348 12.419 2.70558C13.5911 3.87769 14.2495 5.4674 14.2495 7.125C14.2495 9.88516 14.8948 11.9984 15.3284 12.7453C15.4402 12.9354 15.4994 13.1518 15.4998 13.3723C15.5002 13.5929 15.4419 13.8095 15.3308 14H15.3316ZM14.2495 13.375C13.6456 12.3383 12.9995 9.94141 12.9995 7.125C12.9995 5.79892 12.4728 4.52715 11.5351 3.58947C10.5974 2.65178 9.32562 2.125 7.99953 2.125C6.67345 2.125 5.40168 2.65178 4.464 3.58947C3.52632 4.52715 2.99953 5.79892 2.99953 7.125C2.99953 9.94219 2.35266 12.3391 1.74953 13.375H14.2495Z" fill="#0D6EFD"/>
</svg>
